<svg xmlns="http://www.w3.org/2000/svg" width="636.112060546875" height="94.7990951538086" viewBox="-362.8663024902344 -118.83463287353516 636.112060546875 94.7990951538086"><title>Neo4j Graph Visualization</title><desc>Created using Neo4j (http://www.neo4j.com/)</desc><g class="layer relationships"><g class="relationship" transform="translate(244.24573212573137 -79.87342117039371) rotate(535.0353568730008)"><path class="outline" fill="#A5ABB6" stroke="none" d="M 21.40063509461097,12.933012701892217 L 21.90063509461097,12.06698729810778 A 149.83594171229305 149.83594171229305 0 0 0 84.59711191309546,31.641937112562218 L 84.51554607583374,32.638605068398945 A 150.83594171229305 150.83594171229305 0 0 1 21.40063509461097,12.933012701892217 Z M 103.89950628714946,32.97490116588257 L 103.85256190336393,31.976003661215046 A 149.83594171229305 149.83594171229305 0 0 0 167.1903223295327,14.587646352762544 L 165.78134697472964,11.939101761943343 L 173.60508893391133,11.741461290025319 L 169.06895613593676,18.11903914052148 L 167.6599807811337,15.470494549702277 A 150.83594171229305 150.83594171229305 0 0 1 103.89950628714946,32.97490116588257"/><text text-anchor="middle" pointer-events="none" font-size="8px" fill="#000000" x="94.21079088479883" y="35.6185770440829" transform="rotate(180 94.21079088479883 32.6185770440829)" font-family="sans-serif">trek</text></g><g class="relationship" transform="translate(49.303558647420424 -62.939402825018284) rotate(181.654195966337)"><path class="outline" fill="#A5ABB6" stroke="none" d="M 25 0.5 L 91.63879380606723 0.5 L 91.63879380606723 -0.5 L 25 -0.5 Z M 110.97473130606723 0.5 L 177.61352511213445 0.5 L 177.61352511213445 3.5 L 184.61352511213445 0 L 177.61352511213445 -3.5 L 177.61352511213445 -0.5 L 110.97473130606723 -0.5 Z"/><text text-anchor="middle" pointer-events="none" font-size="8px" fill="#000000" x="101.30676255606723" y="3" transform="rotate(180 101.30676255606723 0)" font-family="sans-serif">trek</text></g><g class="relationship" transform="translate(-160.22261146050744 -68.99034901872155) rotate(538.6205146442669)"><path class="outline" fill="#A5ABB6" stroke="none" d="M 25 0.5 L 73.67904337108622 0.5 L 73.67904337108622 -0.5 L 25 -0.5 Z M 93.01498087108622 0.5 L 141.69402424217245 0.5 L 141.69402424217245 3.5 L 148.69402424217245 0 L 141.69402424217245 -3.5 L 141.69402424217245 -0.5 L 93.01498087108622 -0.5 Z"/><text text-anchor="middle" pointer-events="none" font-size="8px" fill="#000000" x="83.34701212108622" y="3" transform="rotate(180 83.34701212108622 0)" font-family="sans-serif">trek</text></g><g class="relationship" transform="translate(244.24573212573137 -79.87342117039371) rotate(535.0353568730008)"><path class="outline" fill="#A5ABB6" stroke="none" d="M 25 0.5 L 83.33228755370233 0.5 L 83.33228755370233 -0.5 L 25 -0.5 Z M 105.34400630370233 0.5 L 163.67629385740466 0.5 L 163.67629385740466 3.5 L 170.67629385740466 0 L 163.67629385740466 -3.5 L 163.67629385740466 -0.5 L 105.34400630370233 -0.5 Z"/><text text-anchor="middle" pointer-events="none" font-size="8px" fill="#000000" x="94.33814692870233" y="3" transform="rotate(180 94.33814692870233 0)" font-family="sans-serif">road</text></g><g class="relationship" transform="translate(244.24573212573137 -79.87342117039371) rotate(535.0353568730008)"><path class="outline" fill="#A5ABB6" stroke="none" d="M 21.40063509461097,-12.933012701892217 L 21.90063509461097,-12.06698729810778 A 149.83594171229305 149.83594171229305 0 0 1 63.7336255873453,-28.442839532017175 L 63.512817548998,-29.41815681895575 A 150.83594171229305 150.83594171229305 0 0 0 21.40063509461097,-12.933012701892217 Z M 125.00130594700296,-30.48493256875041 L 124.81446254829895,-29.502542857708633 A 149.83594171229305 149.83594171229305 0 0 1 167.1903223295327,-14.587646352762544 L 165.78134697472964,-11.939101761943343 L 173.60508893391133,-11.741461290025319 L 169.06895613593676,-18.11903914052148 L 167.6599807811337,-15.470494549702277 A 150.83594171229305 150.83594171229305 0 0 0 125.00130594700296,-30.48493256875041"/><text text-anchor="middle" pointer-events="none" font-size="8px" fill="#000000" x="94.21079088479878" y="-29.618577044082897" transform="rotate(180 94.21079088479878 -32.6185770440829)" font-family="sans-serif">PublicTransport</text></g></g><g class="layer nodes"><g class="node" aria-label="graph-node1" transform="translate(244.24573212573137,-79.87342117039371)"><circle class="outline" cx="0" cy="0" r="25" fill="#C990C0" stroke="#b261a5" stroke-width="2px"/><text class="caption" text-anchor="middle" pointer-events="none" x="0" y="5" font-size="10px" fill="#FFFFFF" font-family="sans-serif"> Darjeeling</text></g><g class="node" aria-label="graph-node3" transform="translate(-333.8662945881631,-64.80879819364452)"><circle class="outline" cx="0" cy="0" r="25" fill="#57C7E3" stroke="#23b3d7" stroke-width="2px"/><text class="caption" text-anchor="middle" pointer-events="none" x="0" y="5" font-size="10px" fill="#2A2C34" font-family="sans-serif"> Sandakp…</text></g><g class="node" aria-label="graph-node0" transform="translate(49.303558647420424,-62.939402825018284)"><circle class="outline" cx="0" cy="0" r="25" fill="#C990C0" stroke="#b261a5" stroke-width="2px"/><text class="caption" text-anchor="middle" pointer-events="none" x="0" y="5" font-size="10px" fill="#FFFFFF" font-family="sans-serif"> Rimbik</text></g><g class="node" aria-label="graph-node2" transform="translate(-160.22261146050744,-68.99034901872155)"><circle class="outline" cx="0" cy="0" r="25" fill="#F79767" stroke="#f36924" stroke-width="2px"/><text class="caption" text-anchor="middle" pointer-events="none" x="0" y="5" font-size="10px" fill="#FFFFFF" font-family="sans-serif"> BhikeBh…</text></g></g></svg>