<svg xmlns="http://www.w3.org/2000/svg" width="526.4525756835938" height="151.31289672851562" viewBox="-344.0693054199219 -32.388771057128906 526.4525756835938 151.31289672851562"><title>Neo4j Graph Visualization</title><desc>Created using Neo4j (http://www.neo4j.com/)</desc><g class="layer relationships"><g class="relationship" transform="translate(153.38324832530952 1.7618911891460627) rotate(538.0122729464382)"><path class="outline" fill="#A5ABB6" stroke="none" d="M 21.40063509461097,12.933012701892217 L 21.90063509461097,12.06698729810778 A 106.1158960643011 106.1158960643011 0 0 0 63.0198185221893,25.6100864704851 L 62.90731167781097,26.603737420249672 A 107.1158960643011 107.1158960643011 0 0 1 21.40063509461097,12.933012701892217 Z M 82.30259406769332,27.03176740179019 L 82.23403271302264,26.034120500002928 A 106.1158960643011 106.1158960643011 0 0 0 123.91065107835958,14.318222643938562 L 122.52672831747739,11.65650181111025 L 130.351986815106,11.53268967401819 L 125.75588142620248,17.86718375437631 L 124.37195866532029,15.205462921547998 A 107.1158960643011 107.1158960643011 0 0 1 82.30259406769332,27.03176740179019"/><text text-anchor="middle" pointer-events="none" font-size="8px" fill="#000000" x="72.60627443669775" y="29.757868507960325" transform="rotate(180 72.60627443669775 26.757868507960325)" font-family="sans-serif">trek</text></g><g class="relationship" transform="translate(0.942036771827725 7.0525626090888505) rotate(526.90709517257)"><path class="outline" fill="#A5ABB6" stroke="none" d="M 25 0.5 L 67.24914972043005 0.5 L 67.24914972043005 -0.5 L 25 -0.5 Z M 86.58508722043005 0.5 L 128.8342369408601 0.5 L 128.8342369408601 3.5 L 135.8342369408601 0 L 128.8342369408601 -3.5 L 128.8342369408601 -0.5 L 86.58508722043005 -0.5 Z"/><text text-anchor="middle" pointer-events="none" font-size="8px" fill="#000000" x="76.91711847043005" y="3" transform="rotate(180 76.91711847043005 0)" font-family="sans-serif">trek</text></g><g class="relationship" transform="translate(-155.711157684312 43.48645396090021) rotate(523.7536381964123)"><path class="outline" fill="#A5ABB6" stroke="none" d="M 25 0.5 L 69.82521767746147 0.5 L 69.82521767746147 -0.5 L 25 -0.5 Z M 89.16115517746147 0.5 L 133.98637285492293 0.5 L 133.98637285492293 3.5 L 140.98637285492293 0 L 133.98637285492293 -3.5 L 133.98637285492293 -0.5 L 89.16115517746147 -0.5 Z"/><text text-anchor="middle" pointer-events="none" font-size="8px" fill="#000000" x="79.49318642746147" y="3" transform="rotate(180 79.49318642746147 0)" font-family="sans-serif">trek</text></g><g class="relationship" transform="translate(153.38324832530952 1.7618911891460627) rotate(538.0122729464382)"><path class="outline" fill="#A5ABB6" stroke="none" d="M 25 0.5 L 61.760637502670974 0.5 L 61.760637502670974 -0.5 L 25 -0.5 Z M 83.77235625267097 0.5 L 120.53299375534195 0.5 L 120.53299375534195 3.5 L 127.53299375534195 0 L 120.53299375534195 -3.5 L 120.53299375534195 -0.5 L 83.77235625267097 -0.5 Z"/><text text-anchor="middle" pointer-events="none" font-size="8px" fill="#000000" x="72.76649687767097" y="3" transform="rotate(180 72.76649687767097 0)" font-family="sans-serif">road</text></g><g class="relationship" transform="translate(153.38324832530952 1.7618911891460627) rotate(538.0122729464382)"><path class="outline" fill="#A5ABB6" stroke="none" d="M 21.40063509461097,-12.933012701892217 L 21.90063509461097,-12.06698729810778 A 106.1158960643011 106.1158960643011 0 0 1 42.43079249956654,-21.175480894538524 L 42.12426169849331,-22.127341634349435 A 107.1158960643011 107.1158960643011 0 0 0 21.40063509461097,-12.933012701892217 Z M 103.26289084111025,-23.476595838401593 L 102.99865080994476,-22.512138889683996 A 106.1158960643011 106.1158960643011 0 0 1 123.91065107835958,-14.318222643938562 L 122.52672831747739,-11.65650181111025 L 130.351986815106,-11.53268967401819 L 125.75588142620248,-17.86718375437631 L 124.37195866532029,-15.205462921547998 A 107.1158960643011 107.1158960643011 0 0 0 103.26289084111025,-23.476595838401593"/><text text-anchor="middle" pointer-events="none" font-size="8px" fill="#000000" x="72.60627443669772" y="-23.757868507960325" transform="rotate(180 72.60627443669772 -26.757868507960325)" font-family="sans-serif">PublicTransport</text></g></g><g class="layer nodes"><g class="node" aria-label="graph-node1" transform="translate(153.38324832530952,1.7618911891460627)"><circle class="outline" cx="0" cy="0" r="25" fill="#C990C0" stroke="#b261a5" stroke-width="2px"/><text class="caption" text-anchor="middle" pointer-events="none" x="0" y="5" font-size="10px" fill="#FFFFFF" font-family="sans-serif"> Darjeeling</text></g><g class="node" aria-label="graph-node3" transform="translate(-315.0692998185743,89.92413810911935)"><circle class="outline" cx="0" cy="0" r="25" fill="#57C7E3" stroke="#23b3d7" stroke-width="2px"/><text class="caption" text-anchor="middle" pointer-events="none" x="0" y="5" font-size="10px" fill="#2A2C34" font-family="sans-serif"> Sandakp…</text></g><g class="node" aria-label="graph-node0" transform="translate(0.942036771827725,7.0525626090888505)"><circle class="outline" cx="0" cy="0" r="25" fill="#C990C0" stroke="#b261a5" stroke-width="2px"/><text class="caption" text-anchor="middle" pointer-events="none" x="0" y="5" font-size="10px" fill="#FFFFFF" font-family="sans-serif"> Rimbik</text></g><g class="node" aria-label="graph-node2" transform="translate(-155.711157684312,43.48645396090021)"><circle class="outline" cx="0" cy="0" r="25" fill="#F79767" stroke="#f36924" stroke-width="2px"/><text class="caption" text-anchor="middle" pointer-events="none" x="0" y="5" font-size="10px" fill="#FFFFFF" font-family="sans-serif"> BhikeBh…</text></g></g></svg>